<?xml version="1.0" encoding="UTF-8" standalone="no"?><!-- Generator: Gravit.io --><svg xmlns="http://www.w3.org/2000/svg" xmlns:xlink="http://www.w3.org/1999/xlink" style="isolation:isolate" viewBox="26 25 399 399" width="399pt" height="399pt"><g><path d=" M 26 224.5 C 26 114.393 115.393 25 225.5 25 C 335.607 25 425 114.393 425 224.5 C 425 334.607 335.607 424 225.5 424 C 115.393 424 26 334.607 26 224.5 Z  M 59 224.5 C 59 132.606 133.606 58 225.5 58 C 317.394 58 392 132.606 392 224.5 C 392 316.394 317.394 391 225.5 391 C 133.606 391 59 316.394 59 224.5 Z " fill-rule="evenodd" fill="rgb(227,88,130)"/><path d=" M 111 224.5 C 111 161.306 162.306 110 225.5 110 C 288.694 110 340 161.306 340 224.5 C 340 287.694 288.694 339 225.5 339 C 162.306 339 111 287.694 111 224.5 Z  M 129.94 224.5 C 129.94 171.759 172.759 128.94 225.5 128.94 C 278.241 128.94 321.06 171.759 321.06 224.5 C 321.06 277.241 278.241 320.06 225.5 320.06 C 172.759 320.06 129.94 277.241 129.94 224.5 Z " fill-rule="evenodd" fill="rgb(244,175,2)"/><path d=" M 174 216.5 L 199.75 248.25 L 225.5 280 L 251.25 248.25 L 277 216.5 L 277 216.5 L 256.319 191 L 194.681 191 L 174 216.5 Z " fill="rgb(1,185,198)"/></g></svg>