<?xml version="1.0" encoding="UTF-8" standalone="no"?><!-- Generator: Gravit.io --><svg xmlns="http://www.w3.org/2000/svg" xmlns:xlink="http://www.w3.org/1999/xlink" style="isolation:isolate" viewBox="7 6 437 437" width="437pt" height="437pt"><g><g><path d=" M 7 224.5 C 7 103.907 104.907 6 225.5 6 C 346.093 6 444 103.907 444 224.5 C 444 345.093 346.093 443 225.5 443 C 104.907 443 7 345.093 7 224.5 Z  M 38 224.5 C 38 121.016 122.016 37 225.5 37 C 328.984 37 413 121.016 413 224.5 C 413 327.984 328.984 412 225.5 412 C 122.016 412 38 327.984 38 224.5 Z " fill-rule="evenodd" fill="rgb(233,172,32)"/><path d=" M 412.829 232.5 C 408.635 132.72 326.304 53 225.5 53 C 124.696 53 42.365 132.72 38.171 232.5 C 38.056 229.848 38 227.18 38 224.5 C 38 121.016 122.016 37 225.5 37 C 328.984 37 413 121.016 413 224.5 C 413 227.18 412.944 229.848 412.829 232.5 Z " fill="rgb(169,118,31)"/></g><g><path d=" M 225.5 369 L 83 199.5 L 164 199.5 L 194.75 284.25 L 225.5 369 Z " fill="rgb(133,202,208)"/><path d=" M 225.5 369 L 368 199.5 L 287 199.5 L 256.25 284.25 L 225.5 369 Z " fill="rgb(5,144,142)"/><polygon points="225.5,369,287,199.5,164,199.5" fill="rgb(73,175,178)"/></g><g><path d=" M 146.053 124.5 L 83 199.5 L 164 199.5 L 191.212 124.5 L 146.053 124.5 Z " fill="rgb(186,223,227)"/><path d=" M 304.947 124.5 L 368 199.5 L 287 199.5 L 259.788 124.5 L 304.947 124.5 Z " fill="rgb(73,175,178)"/><path d=" M 259.788 124.5 L 287 199.5 L 225.5 199.5 L 164 199.5 L 191.212 124.5 L 259.788 124.5 Z " fill="rgb(134,202,208)"/></g></g></svg>